<mxfile host="app.diagrams.net" modified="2020-06-06T00:33:55.676Z" agent="5.0 (Windows NT 10.0; Win64; x64) AppleWebKit/537.36 (KHTML, like Gecko) Chrome/79.0.3945.130 Safari/537.36" etag="3rzUfCnJCnUaV-TVU2j_" version="13.1.12" type="github">
  <diagram id="-Mg6h7BqQp_kjDwOtDQD" name="Page-1">
    <mxGraphModel dx="1673" dy="839" grid="1" gridSize="10" guides="1" tooltips="1" connect="1" arrows="1" fold="1" page="1" pageScale="1" pageWidth="827" pageHeight="1169" math="0" shadow="0">
      <root>
        <mxCell id="0" />
        <mxCell id="1" parent="0" />
        <mxCell id="NhfXJjoMbKmZEBZ8xVZQ-1" value="" style="whiteSpace=wrap;html=1;aspect=fixed;" vertex="1" parent="1">
          <mxGeometry x="170" y="220" width="40" height="40" as="geometry" />
        </mxCell>
        <mxCell id="NhfXJjoMbKmZEBZ8xVZQ-5" value="" style="whiteSpace=wrap;html=1;aspect=fixed;" vertex="1" parent="1">
          <mxGeometry x="210" y="220" width="40" height="40" as="geometry" />
        </mxCell>
        <mxCell id="NhfXJjoMbKmZEBZ8xVZQ-6" value="" style="whiteSpace=wrap;html=1;aspect=fixed;" vertex="1" parent="1">
          <mxGeometry x="250" y="220" width="40" height="40" as="geometry" />
        </mxCell>
        <mxCell id="NhfXJjoMbKmZEBZ8xVZQ-7" value="" style="whiteSpace=wrap;html=1;aspect=fixed;" vertex="1" parent="1">
          <mxGeometry x="290" y="220" width="40" height="40" as="geometry" />
        </mxCell>
        <mxCell id="NhfXJjoMbKmZEBZ8xVZQ-8" value="" style="whiteSpace=wrap;html=1;aspect=fixed;" vertex="1" parent="1">
          <mxGeometry x="330" y="220" width="40" height="40" as="geometry" />
        </mxCell>
        <mxCell id="NhfXJjoMbKmZEBZ8xVZQ-10" style="edgeStyle=orthogonalEdgeStyle;rounded=0;orthogonalLoop=1;jettySize=auto;html=1;entryX=0;entryY=0.5;entryDx=0;entryDy=0;" edge="1" parent="1" source="NhfXJjoMbKmZEBZ8xVZQ-9" target="NhfXJjoMbKmZEBZ8xVZQ-1">
          <mxGeometry relative="1" as="geometry" />
        </mxCell>
        <mxCell id="NhfXJjoMbKmZEBZ8xVZQ-9" value="l1_cache" style="text;html=1;strokeColor=none;fillColor=none;align=center;verticalAlign=middle;whiteSpace=wrap;rounded=0;" vertex="1" parent="1">
          <mxGeometry x="60" y="225" width="60" height="30" as="geometry" />
        </mxCell>
        <mxCell id="NhfXJjoMbKmZEBZ8xVZQ-12" value="&lt;span&gt;CoherentCache&amp;nbsp;&lt;/span&gt;" style="rounded=0;whiteSpace=wrap;html=1;fillColor=#fff2cc;strokeColor=#d6b656;" vertex="1" parent="1">
          <mxGeometry x="180" y="80" width="130" height="60" as="geometry" />
        </mxCell>
        <mxCell id="NhfXJjoMbKmZEBZ8xVZQ-13" value="" style="endArrow=classic;html=1;entryX=0.5;entryY=1;entryDx=0;entryDy=0;exitX=0.5;exitY=0;exitDx=0;exitDy=0;" edge="1" parent="1" source="NhfXJjoMbKmZEBZ8xVZQ-1" target="NhfXJjoMbKmZEBZ8xVZQ-12">
          <mxGeometry width="50" height="50" relative="1" as="geometry">
            <mxPoint x="380" y="70" as="sourcePoint" />
            <mxPoint x="430" y="20" as="targetPoint" />
          </mxGeometry>
        </mxCell>
        <mxCell id="NhfXJjoMbKmZEBZ8xVZQ-14" value="" style="whiteSpace=wrap;html=1;aspect=fixed;" vertex="1" parent="1">
          <mxGeometry x="570" y="215" width="40" height="40" as="geometry" />
        </mxCell>
        <mxCell id="NhfXJjoMbKmZEBZ8xVZQ-15" value="" style="whiteSpace=wrap;html=1;aspect=fixed;" vertex="1" parent="1">
          <mxGeometry x="610" y="215" width="40" height="40" as="geometry" />
        </mxCell>
        <mxCell id="NhfXJjoMbKmZEBZ8xVZQ-16" value="" style="whiteSpace=wrap;html=1;aspect=fixed;" vertex="1" parent="1">
          <mxGeometry x="650" y="215" width="40" height="40" as="geometry" />
        </mxCell>
        <mxCell id="NhfXJjoMbKmZEBZ8xVZQ-17" value="" style="whiteSpace=wrap;html=1;aspect=fixed;" vertex="1" parent="1">
          <mxGeometry x="690" y="215" width="40" height="40" as="geometry" />
        </mxCell>
        <mxCell id="NhfXJjoMbKmZEBZ8xVZQ-18" value="" style="whiteSpace=wrap;html=1;aspect=fixed;" vertex="1" parent="1">
          <mxGeometry x="730" y="215" width="40" height="40" as="geometry" />
        </mxCell>
        <mxCell id="NhfXJjoMbKmZEBZ8xVZQ-19" style="edgeStyle=orthogonalEdgeStyle;rounded=0;orthogonalLoop=1;jettySize=auto;html=1;entryX=0;entryY=0.5;entryDx=0;entryDy=0;" edge="1" parent="1" source="NhfXJjoMbKmZEBZ8xVZQ-20" target="NhfXJjoMbKmZEBZ8xVZQ-14">
          <mxGeometry relative="1" as="geometry" />
        </mxCell>
        <mxCell id="NhfXJjoMbKmZEBZ8xVZQ-20" value="l2_cache" style="text;html=1;strokeColor=none;fillColor=none;align=center;verticalAlign=middle;whiteSpace=wrap;rounded=0;" vertex="1" parent="1">
          <mxGeometry x="460" y="220" width="60" height="30" as="geometry" />
        </mxCell>
        <mxCell id="NhfXJjoMbKmZEBZ8xVZQ-21" value="&lt;span&gt;CoherentCache&amp;nbsp;&lt;/span&gt;" style="rounded=0;whiteSpace=wrap;html=1;fillColor=#fff2cc;strokeColor=#d6b656;" vertex="1" parent="1">
          <mxGeometry x="620" y="80" width="130" height="60" as="geometry" />
        </mxCell>
        <mxCell id="NhfXJjoMbKmZEBZ8xVZQ-23" value="" style="endArrow=classic;html=1;entryX=0.5;entryY=1;entryDx=0;entryDy=0;exitX=0.5;exitY=0;exitDx=0;exitDy=0;" edge="1" parent="1" source="NhfXJjoMbKmZEBZ8xVZQ-14" target="NhfXJjoMbKmZEBZ8xVZQ-21">
          <mxGeometry width="50" height="50" relative="1" as="geometry">
            <mxPoint x="580" y="220" as="sourcePoint" />
            <mxPoint x="630" y="170" as="targetPoint" />
          </mxGeometry>
        </mxCell>
        <mxCell id="NhfXJjoMbKmZEBZ8xVZQ-35" value="define" style="text;html=1;strokeColor=none;fillColor=none;align=center;verticalAlign=middle;whiteSpace=wrap;rounded=0;fontSize=22;" vertex="1" parent="1">
          <mxGeometry x="10" y="10" width="90" height="30" as="geometry" />
        </mxCell>
        <mxCell id="NhfXJjoMbKmZEBZ8xVZQ-42" style="edgeStyle=orthogonalEdgeStyle;rounded=0;orthogonalLoop=1;jettySize=auto;html=1;fontSize=22;" edge="1" parent="1" source="NhfXJjoMbKmZEBZ8xVZQ-40" target="NhfXJjoMbKmZEBZ8xVZQ-41">
          <mxGeometry relative="1" as="geometry" />
        </mxCell>
        <mxCell id="NhfXJjoMbKmZEBZ8xVZQ-40" value="l1_cache" style="text;html=1;strokeColor=none;fillColor=none;align=center;verticalAlign=middle;whiteSpace=wrap;rounded=0;" vertex="1" parent="1">
          <mxGeometry x="80" y="410" width="60" height="30" as="geometry" />
        </mxCell>
        <mxCell id="NhfXJjoMbKmZEBZ8xVZQ-45" style="edgeStyle=orthogonalEdgeStyle;rounded=0;orthogonalLoop=1;jettySize=auto;html=1;fontSize=22;" edge="1" parent="1" source="NhfXJjoMbKmZEBZ8xVZQ-41" target="NhfXJjoMbKmZEBZ8xVZQ-44">
          <mxGeometry relative="1" as="geometry" />
        </mxCell>
        <mxCell id="NhfXJjoMbKmZEBZ8xVZQ-41" value="" style="whiteSpace=wrap;html=1;aspect=fixed;" vertex="1" parent="1">
          <mxGeometry x="180" y="405" width="40" height="40" as="geometry" />
        </mxCell>
        <mxCell id="NhfXJjoMbKmZEBZ8xVZQ-44" value="&lt;span&gt;L1CacheBase&lt;/span&gt;" style="rounded=0;whiteSpace=wrap;html=1;fillColor=#fff2cc;strokeColor=#d6b656;" vertex="1" parent="1">
          <mxGeometry x="274" y="395" width="130" height="60" as="geometry" />
        </mxCell>
        <mxCell id="NhfXJjoMbKmZEBZ8xVZQ-46" style="edgeStyle=orthogonalEdgeStyle;rounded=0;orthogonalLoop=1;jettySize=auto;html=1;fontSize=22;" edge="1" source="NhfXJjoMbKmZEBZ8xVZQ-47" target="NhfXJjoMbKmZEBZ8xVZQ-49" parent="1">
          <mxGeometry relative="1" as="geometry" />
        </mxCell>
        <mxCell id="NhfXJjoMbKmZEBZ8xVZQ-47" value="l2_cache" style="text;html=1;strokeColor=none;fillColor=none;align=center;verticalAlign=middle;whiteSpace=wrap;rounded=0;" vertex="1" parent="1">
          <mxGeometry x="80" y="520" width="60" height="30" as="geometry" />
        </mxCell>
        <mxCell id="NhfXJjoMbKmZEBZ8xVZQ-48" style="edgeStyle=orthogonalEdgeStyle;rounded=0;orthogonalLoop=1;jettySize=auto;html=1;fontSize=22;" edge="1" source="NhfXJjoMbKmZEBZ8xVZQ-49" target="NhfXJjoMbKmZEBZ8xVZQ-50" parent="1">
          <mxGeometry relative="1" as="geometry" />
        </mxCell>
        <mxCell id="NhfXJjoMbKmZEBZ8xVZQ-49" value="" style="whiteSpace=wrap;html=1;aspect=fixed;" vertex="1" parent="1">
          <mxGeometry x="180" y="515" width="40" height="40" as="geometry" />
        </mxCell>
        <mxCell id="NhfXJjoMbKmZEBZ8xVZQ-50" value="&lt;span&gt;LLCCacheBase&lt;/span&gt;" style="rounded=0;whiteSpace=wrap;html=1;fillColor=#fff2cc;strokeColor=#d6b656;" vertex="1" parent="1">
          <mxGeometry x="274" y="505" width="130" height="60" as="geometry" />
        </mxCell>
        <mxCell id="NhfXJjoMbKmZEBZ8xVZQ-53" value="&lt;br&gt;&lt;br&gt;&lt;br&gt;&lt;br&gt;&lt;br&gt;&lt;br&gt;&lt;br&gt;&lt;br&gt;&lt;br&gt;&lt;br&gt;&lt;br&gt;&lt;br&gt;Reporter_t" style="rounded=0;whiteSpace=wrap;html=1;fillColor=none;fontSize=22;" vertex="1" parent="1">
          <mxGeometry x="890" y="150" width="160" height="245" as="geometry" />
        </mxCell>
        <mxCell id="NhfXJjoMbKmZEBZ8xVZQ-54" value="&lt;br&gt;&lt;br&gt;&lt;br&gt;&lt;br&gt;&lt;br&gt;&lt;br&gt;&lt;br&gt;&lt;br&gt;&lt;br&gt;&lt;br&gt;&lt;br&gt;&lt;br&gt;&lt;br&gt;&lt;br&gt;&lt;br&gt;ReportDBs" style="rounded=0;whiteSpace=wrap;html=1;fillColor=none;fontSize=22;" vertex="1" parent="1">
          <mxGeometry x="1200" y="50" width="160" height="360" as="geometry" />
        </mxCell>
        <mxCell id="NhfXJjoMbKmZEBZ8xVZQ-57" value="acc_dbs" style="rounded=0;whiteSpace=wrap;html=1;fillColor=none;fontSize=22;" vertex="1" parent="1">
          <mxGeometry x="1220" y="76" width="120" height="60" as="geometry" />
        </mxCell>
        <mxCell id="NhfXJjoMbKmZEBZ8xVZQ-58" value="addr_dbs" style="rounded=0;whiteSpace=wrap;html=1;fillColor=none;fontSize=22;" vertex="1" parent="1">
          <mxGeometry x="1220" y="136" width="120" height="60" as="geometry" />
        </mxCell>
        <mxCell id="NhfXJjoMbKmZEBZ8xVZQ-59" value="state_dbs" style="rounded=0;whiteSpace=wrap;html=1;fillColor=none;fontSize=22;" vertex="1" parent="1">
          <mxGeometry x="1220" y="196" width="120" height="60" as="geometry" />
        </mxCell>
        <mxCell id="NhfXJjoMbKmZEBZ8xVZQ-60" value="addr_traces" style="rounded=0;whiteSpace=wrap;html=1;fillColor=none;fontSize=22;" vertex="1" parent="1">
          <mxGeometry x="1220" y="256" width="120" height="60" as="geometry" />
        </mxCell>
        <mxCell id="NhfXJjoMbKmZEBZ8xVZQ-61" value="set_traces" style="rounded=0;whiteSpace=wrap;html=1;fillColor=none;fontSize=22;" vertex="1" parent="1">
          <mxGeometry x="1220" y="316" width="120" height="60" as="geometry" />
        </mxCell>
        <mxCell id="NhfXJjoMbKmZEBZ8xVZQ-62" value="dbs" style="rounded=0;whiteSpace=wrap;html=1;fillColor=none;fontSize=22;" vertex="1" parent="1">
          <mxGeometry x="905" y="160" width="130" height="55" as="geometry" />
        </mxCell>
        <mxCell id="NhfXJjoMbKmZEBZ8xVZQ-65" value="" style="endArrow=classic;html=1;fontSize=22;exitX=1;exitY=0.5;exitDx=0;exitDy=0;entryX=0;entryY=0.5;entryDx=0;entryDy=0;" edge="1" parent="1" source="NhfXJjoMbKmZEBZ8xVZQ-62" target="NhfXJjoMbKmZEBZ8xVZQ-54">
          <mxGeometry width="50" height="50" relative="1" as="geometry">
            <mxPoint x="790" y="500" as="sourcePoint" />
            <mxPoint x="840" y="450" as="targetPoint" />
          </mxGeometry>
        </mxCell>
        <mxCell id="NhfXJjoMbKmZEBZ8xVZQ-66" value="db_depth" style="rounded=0;whiteSpace=wrap;html=1;fillColor=none;fontSize=22;" vertex="1" parent="1">
          <mxGeometry x="905" y="245" width="25" height="55" as="geometry" />
        </mxCell>
        <mxCell id="NhfXJjoMbKmZEBZ8xVZQ-67" value="" style="rounded=0;whiteSpace=wrap;html=1;fillColor=none;fontSize=22;" vertex="1" parent="1">
          <mxGeometry x="930" y="245" width="25" height="55" as="geometry" />
        </mxCell>
        <mxCell id="NhfXJjoMbKmZEBZ8xVZQ-68" value="" style="rounded=0;whiteSpace=wrap;html=1;fillColor=none;fontSize=22;" vertex="1" parent="1">
          <mxGeometry x="955" y="245" width="25" height="55" as="geometry" />
        </mxCell>
        <mxCell id="NhfXJjoMbKmZEBZ8xVZQ-69" value="" style="rounded=0;whiteSpace=wrap;html=1;fillColor=none;fontSize=22;" vertex="1" parent="1">
          <mxGeometry x="980" y="245" width="25" height="55" as="geometry" />
        </mxCell>
        <mxCell id="NhfXJjoMbKmZEBZ8xVZQ-70" value="" style="rounded=0;whiteSpace=wrap;html=1;fillColor=none;fontSize=22;" vertex="1" parent="1">
          <mxGeometry x="1005" y="245" width="25" height="55" as="geometry" />
        </mxCell>
        <mxCell id="NhfXJjoMbKmZEBZ8xVZQ-77" value="db_type" style="rounded=0;whiteSpace=wrap;html=1;fillColor=none;fontSize=22;" vertex="1" parent="1">
          <mxGeometry x="907.5" y="316" width="25" height="55" as="geometry" />
        </mxCell>
        <mxCell id="NhfXJjoMbKmZEBZ8xVZQ-78" value="" style="rounded=0;whiteSpace=wrap;html=1;fillColor=none;fontSize=22;" vertex="1" parent="1">
          <mxGeometry x="932.5" y="316" width="25" height="55" as="geometry" />
        </mxCell>
        <mxCell id="NhfXJjoMbKmZEBZ8xVZQ-79" value="" style="rounded=0;whiteSpace=wrap;html=1;fillColor=none;fontSize=22;" vertex="1" parent="1">
          <mxGeometry x="957.5" y="316" width="25" height="55" as="geometry" />
        </mxCell>
        <mxCell id="NhfXJjoMbKmZEBZ8xVZQ-80" value="" style="rounded=0;whiteSpace=wrap;html=1;fillColor=none;fontSize=22;" vertex="1" parent="1">
          <mxGeometry x="982.5" y="316" width="25" height="55" as="geometry" />
        </mxCell>
        <mxCell id="NhfXJjoMbKmZEBZ8xVZQ-81" value="" style="rounded=0;whiteSpace=wrap;html=1;fillColor=none;fontSize=22;" vertex="1" parent="1">
          <mxGeometry x="1007.5" y="316" width="25" height="55" as="geometry" />
        </mxCell>
        <mxCell id="NhfXJjoMbKmZEBZ8xVZQ-83" value="" style="endArrow=none;dashed=1;html=1;fontSize=22;" edge="1" parent="1">
          <mxGeometry width="50" height="50" relative="1" as="geometry">
            <mxPoint x="1340" y="255" as="sourcePoint" />
            <mxPoint x="1410" y="185" as="targetPoint" />
          </mxGeometry>
        </mxCell>
        <mxCell id="NhfXJjoMbKmZEBZ8xVZQ-84" value="" style="endArrow=none;dashed=1;html=1;fontSize=22;exitX=1;exitY=1;exitDx=0;exitDy=0;" edge="1" parent="1" source="NhfXJjoMbKmZEBZ8xVZQ-60">
          <mxGeometry width="50" height="50" relative="1" as="geometry">
            <mxPoint x="1350" y="265" as="sourcePoint" />
            <mxPoint x="1420" y="375" as="targetPoint" />
          </mxGeometry>
        </mxCell>
        <mxCell id="NhfXJjoMbKmZEBZ8xVZQ-85" value="CacheDB" style="rounded=0;whiteSpace=wrap;html=1;fillColor=none;fontSize=22;" vertex="1" parent="1">
          <mxGeometry x="1400" y="245" width="120" height="60" as="geometry" />
        </mxCell>
        <mxCell id="NhfXJjoMbKmZEBZ8xVZQ-86" value="map" style="ellipse;shape=cloud;whiteSpace=wrap;html=1;fillColor=none;fontSize=22;" vertex="1" parent="1">
          <mxGeometry x="1560" y="254" width="160" height="100" as="geometry" />
        </mxCell>
        <mxCell id="NhfXJjoMbKmZEBZ8xVZQ-87" value="" style="endArrow=none;html=1;fontSize=22;" edge="1" parent="1">
          <mxGeometry width="50" height="50" relative="1" as="geometry">
            <mxPoint x="1290" y="225" as="sourcePoint" />
            <mxPoint x="1340" y="175" as="targetPoint" />
          </mxGeometry>
        </mxCell>
        <mxCell id="NhfXJjoMbKmZEBZ8xVZQ-89" value="" style="endArrow=none;html=1;fontSize=22;exitX=1;exitY=0.5;exitDx=0;exitDy=0;entryX=0.07;entryY=0.4;entryDx=0;entryDy=0;entryPerimeter=0;" edge="1" parent="1" source="NhfXJjoMbKmZEBZ8xVZQ-85" target="NhfXJjoMbKmZEBZ8xVZQ-86">
          <mxGeometry width="50" height="50" relative="1" as="geometry">
            <mxPoint x="1560" y="234" as="sourcePoint" />
            <mxPoint x="1610" y="184" as="targetPoint" />
          </mxGeometry>
        </mxCell>
        <mxCell id="NhfXJjoMbKmZEBZ8xVZQ-97" value="" style="group" vertex="1" connectable="0" parent="1">
          <mxGeometry x="90" y="670" width="180" height="175" as="geometry" />
        </mxCell>
        <mxCell id="NhfXJjoMbKmZEBZ8xVZQ-96" value="" style="rounded=0;whiteSpace=wrap;html=1;fillColor=#b1ddf0;fontSize=22;strokeColor=#10739e;" vertex="1" parent="NhfXJjoMbKmZEBZ8xVZQ-97">
          <mxGeometry x="10" width="160" height="175" as="geometry" />
        </mxCell>
        <mxCell id="NhfXJjoMbKmZEBZ8xVZQ-90" value="global variable" style="text;html=1;strokeColor=none;fillColor=none;align=center;verticalAlign=middle;whiteSpace=wrap;rounded=0;fontSize=22;" vertex="1" parent="NhfXJjoMbKmZEBZ8xVZQ-97">
          <mxGeometry y="10" width="180" height="20" as="geometry" />
        </mxCell>
        <mxCell id="NhfXJjoMbKmZEBZ8xVZQ-93" value="reporter" style="rounded=0;whiteSpace=wrap;html=1;fillColor=none;fontSize=22;" vertex="1" parent="NhfXJjoMbKmZEBZ8xVZQ-97">
          <mxGeometry x="20" y="45" width="140" height="40" as="geometry" />
        </mxCell>
        <mxCell id="NhfXJjoMbKmZEBZ8xVZQ-94" value="ccfg" style="rounded=0;whiteSpace=wrap;html=1;fillColor=none;fontSize=22;" vertex="1" parent="NhfXJjoMbKmZEBZ8xVZQ-97">
          <mxGeometry x="20" y="85" width="140" height="40" as="geometry" />
        </mxCell>
        <mxCell id="NhfXJjoMbKmZEBZ8xVZQ-95" value="tcfg" style="rounded=0;whiteSpace=wrap;html=1;fillColor=none;fontSize=22;" vertex="1" parent="NhfXJjoMbKmZEBZ8xVZQ-97">
          <mxGeometry x="20" y="125" width="140" height="40" as="geometry" />
        </mxCell>
        <mxCell id="NhfXJjoMbKmZEBZ8xVZQ-98" value="" style="endArrow=none;dashed=1;html=1;fontSize=22;exitX=1;exitY=0.5;exitDx=0;exitDy=0;entryX=0;entryY=0.5;entryDx=0;entryDy=0;" edge="1" parent="1" source="NhfXJjoMbKmZEBZ8xVZQ-93" target="NhfXJjoMbKmZEBZ8xVZQ-99">
          <mxGeometry width="50" height="50" relative="1" as="geometry">
            <mxPoint x="380" y="770" as="sourcePoint" />
            <mxPoint x="360" y="735" as="targetPoint" />
          </mxGeometry>
        </mxCell>
        <mxCell id="NhfXJjoMbKmZEBZ8xVZQ-99" value="记录内存中访问情况" style="rounded=0;whiteSpace=wrap;html=1;fillColor=none;fontSize=22;" vertex="1" parent="1">
          <mxGeometry x="340" y="670" width="120" height="60" as="geometry" />
        </mxCell>
        <mxCell id="NhfXJjoMbKmZEBZ8xVZQ-100" value="保存Cache相关配置" style="rounded=0;whiteSpace=wrap;html=1;fillColor=none;fontSize=22;" vertex="1" parent="1">
          <mxGeometry x="340" y="745" width="120" height="60" as="geometry" />
        </mxCell>
        <mxCell id="NhfXJjoMbKmZEBZ8xVZQ-101" value="" style="endArrow=none;dashed=1;html=1;fontSize=22;exitX=1;exitY=0.5;exitDx=0;exitDy=0;entryX=0;entryY=0.5;entryDx=0;entryDy=0;" edge="1" parent="1" source="NhfXJjoMbKmZEBZ8xVZQ-94" target="NhfXJjoMbKmZEBZ8xVZQ-100">
          <mxGeometry width="50" height="50" relative="1" as="geometry">
            <mxPoint x="260" y="745" as="sourcePoint" />
            <mxPoint x="350" y="710" as="targetPoint" />
          </mxGeometry>
        </mxCell>
        <mxCell id="NhfXJjoMbKmZEBZ8xVZQ-102" value="traverse&lt;br&gt;配置" style="rounded=0;whiteSpace=wrap;html=1;fillColor=none;fontSize=22;" vertex="1" parent="1">
          <mxGeometry x="340" y="820" width="120" height="60" as="geometry" />
        </mxCell>
        <mxCell id="NhfXJjoMbKmZEBZ8xVZQ-103" value="" style="endArrow=none;dashed=1;html=1;fontSize=22;exitX=1;exitY=0.5;exitDx=0;exitDy=0;entryX=0;entryY=0.5;entryDx=0;entryDy=0;" edge="1" parent="1" source="NhfXJjoMbKmZEBZ8xVZQ-95" target="NhfXJjoMbKmZEBZ8xVZQ-102">
          <mxGeometry width="50" height="50" relative="1" as="geometry">
            <mxPoint x="260" y="785" as="sourcePoint" />
            <mxPoint x="350" y="785" as="targetPoint" />
          </mxGeometry>
        </mxCell>
        <mxCell id="NhfXJjoMbKmZEBZ8xVZQ-105" value="&lt;b&gt;traverse&lt;/b&gt;" style="text;html=1;strokeColor=none;fillColor=none;align=center;verticalAlign=middle;whiteSpace=wrap;rounded=0;fontSize=22;" vertex="1" parent="1">
          <mxGeometry x="900" y="600" width="170" height="60" as="geometry" />
        </mxCell>
        <mxCell id="NhfXJjoMbKmZEBZ8xVZQ-106" value="traverse_func_t" style="rounded=0;whiteSpace=wrap;html=1;fillColor=none;fontSize=22;" vertex="1" parent="1">
          <mxGeometry x="882.5" y="710" width="220" height="60" as="geometry" />
        </mxCell>
      </root>
    </mxGraphModel>
  </diagram>
</mxfile>
